{"asset":{"generator":"3D Builder","version":"2.0"},"scene":0,"scenes":[{"nodes":[0]}],"nodes":[{"mesh":0,"matrix":[1,0,0,0,0,-1.1920928955078125E-7,-0.99999988079071045,0,0,0.99999988079071045,-1.1920928955078125E-7,0,-5.9662933349609375,-2.3563425540924072,26.111614227294922,1]}],"meshes":[{"primitives":[{"attributes":{"POSITION":0,"TEXCOORD_0":1},"mode":4,"indices":2,"material":0}]}],"materials":[{"pbrMetallicRoughness":{"baseColorFactor":[1,1,1,1],"metallicFactor":0,"roughnessFactor":1,"baseColorTexture":{"index":0,"texCoord":0}},"alphaMode":"OPAQUE"}],"textures":[{"source":0,"sampler":0}],"images":[{"uri":"texture_1.jpeg"}],"samplers":[{"magFilter":9729,"wrapS":10497,"wrapT":10497}],"accessors":[{"bufferView":0,"byteOffset":0,"count":555,"componentType":5126,"type":"VEC3","min":[-13.753554344177246,9.940098762512207,2.3563458919525146],"max":[25.686140060424805,42.283138275146484,6.8885092735290527]},{"bufferView":1,"byteOffset":0,"count":555,"componentType":5126,"type":"VEC2"},{"bufferView":2,"byteOffset":0,"count":2817,"componentType":5125,"type":"SCALAR"}],"bufferViews":[{"buffer":0,"byteOffset":0,"byteLength":6660,"byteStride":12,"target":34962},{"buffer":0,"byteOffset":6660,"byteLength":4440,"byteStride":8,"target":34962},{"buffer":0,"byteOffset":11100,"byteLength":11268,"target":34963}],"buffers":[{"byteLength":22368,"uri":"garden_939faces.bin"}]}