{"asset":{"generator":"3D Builder","version":"2.0"},"scene":0,"scenes":[{"nodes":[0]}],"nodes":[{"mesh":0,"matrix":[1,0,0,0,0,-1.1920928955078125E-7,-0.99999988079071045,0,0,0.99999988079071045,-1.1920928955078125E-7,0,0,-1.8167495285936752E-11,-0.0001523999817436561,1]}],"meshes":[{"primitives":[{"attributes":{"POSITION":0},"mode":4,"indices":3,"material":0},{"attributes":{"POSITION":1,"TEXCOORD_0":2},"mode":4,"indices":4,"material":1}]}],"materials":[{"name":"BaseColor","pbrMetallicRoughness":{"baseColorFactor":[0.50288659334182739,0.50288659334182739,0.50288659334182739,1],"metallicFactor":0,"roughnessFactor":1},"alphaMode":"OPAQUE"},{"pbrMetallicRoughness":{"baseColorFactor":[1,1,1,1],"metallicFactor":0,"roughnessFactor":1,"baseColorTexture":{"index":0,"texCoord":0}},"alphaMode":"OPAQUE"}],"textures":[{"source":0,"sampler":0}],"images":[{"uri":"texture_2.jpeg"}],"samplers":[{"magFilter":9729,"wrapS":10497,"wrapT":10497}],"accessors":[{"bufferView":0,"byteOffset":0,"count":528,"componentType":5126,"type":"VEC3","min":[-19.607246398925781,-16.1715145111084,0],"max":[19.613361358642578,16.171403884887695,3.4081814289093018]},{"bufferView":0,"byteOffset":6336,"count":1246,"componentType":5126,"type":"VEC3","min":[-19.719846725463867,-16.1715145111084,0],"max":[19.719850540161133,16.171403884887695,4.5322127342224121]},{"bufferView":1,"byteOffset":0,"count":1246,"componentType":5126,"type":"VEC2"},{"bufferView":2,"byteOffset":0,"count":2394,"componentType":5125,"type":"SCALAR"},{"bufferView":2,"byteOffset":9576,"count":4626,"componentType":5125,"type":"SCALAR"}],"bufferViews":[{"buffer":0,"byteOffset":0,"byteLength":21288,"byteStride":12,"target":34962},{"buffer":0,"byteOffset":21288,"byteLength":9968,"byteStride":8,"target":34962},{"buffer":0,"byteOffset":31256,"byteLength":28080,"target":34963}],"buffers":[{"byteLength":59336,"uri":"garden_939faces_extruded.bin"}]}