{"asset":{"generator":"3D Builder","version":"2.0"},"scene":0,"scenes":[{"nodes":[0]}],"nodes":[{"mesh":0,"matrix":[0.97452241182327271,-0.042621307075023651,0.22020435333251953,0,0.15583953261375427,0.83475828170776367,-0.52810275554656982,0,-0.16130897402763367,0.54896444082260132,0.82013195753097534,0,-0.0018326935824006796,0.00554098654538393,0.008479120209813118,1]}],"meshes":[{"primitives":[{"attributes":{"POSITION":0},"mode":4,"indices":1,"material":0}]}],"materials":[{"name":"Default","pbrMetallicRoughness":{"baseColorFactor":[0.50288659334182739,0.50288659334182739,0.50288659334182739,1],"metallicFactor":0,"roughnessFactor":1},"alphaMode":"OPAQUE"}],"accessors":[{"bufferView":0,"byteOffset":0,"count":64195,"componentType":5126,"type":"VEC3","min":[-0.02542448416352272,-0.0075348485261201859,-0.0214432030916214],"max":[0.0071236081421375275,0.0078315921127796173,0.0018976203864440322]},{"bufferView":1,"byteOffset":0,"count":382617,"componentType":5125,"type":"SCALAR"}],"bufferViews":[{"buffer":0,"byteOffset":0,"byteLength":770340,"byteStride":12,"target":34962},{"buffer":0,"byteOffset":770340,"byteLength":1530468,"target":34963}],"buffers":[{"byteLength":2300808,"uri":"garden.bin"}]}