{"asset":{"generator":"3D Builder","version":"2.0"},"scene":0,"scenes":[{"nodes":[0]}],"nodes":[{"mesh":0,"matrix":[0.33528831601142883,-0.87526345252990723,0.34856164455413818,0,-0.4508969783782959,-0.47393563389778137,-0.756359338760376,0,0.82721012830734253,0.09643147885799408,-0.55355823040008545,0,-4.38743257522583,1.8819094896316528,5.3274621963500977,1]}],"meshes":[{"primitives":[{"attributes":{"POSITION":0,"TEXCOORD_0":2},"mode":4,"indices":4,"material":0},{"attributes":{"POSITION":1,"COLOR_0":3},"mode":4,"indices":5}]}],"materials":[{"pbrMetallicRoughness":{"baseColorFactor":[1,1,1,1],"metallicFactor":0,"roughnessFactor":1,"baseColorTexture":{"index":0,"texCoord":0}},"alphaMode":"OPAQUE"}],"textures":[{"source":0,"sampler":0}],"images":[{"uri":"texture_0.jpeg"}],"samplers":[{"magFilter":9729,"wrapS":10497,"wrapT":10497}],"accessors":[{"bufferView":0,"byteOffset":0,"count":4561,"componentType":5126,"type":"VEC3","min":[-4.7853536605834961,-5.5882759094238281,-2.8304314613342285],"max":[4.4732789993286133,5.3305201530456543,10.263962745666504]},{"bufferView":0,"byteOffset":54732,"count":168,"componentType":5126,"type":"VEC3","min":[-3.9090073108673096,-0.21312437951564789,1.3125429153442383],"max":[0.093850217759609222,4.9991836547851563,10.263962745666504]},{"bufferView":1,"byteOffset":0,"count":4561,"componentType":5126,"type":"VEC2"},{"bufferView":2,"byteOffset":0,"count":168,"componentType":5121,"type":"VEC4","normalized":true},{"bufferView":3,"byteOffset":0,"count":17871,"componentType":5125,"type":"SCALAR"},{"bufferView":3,"byteOffset":71484,"count":486,"componentType":5125,"type":"SCALAR"}],"bufferViews":[{"buffer":0,"byteOffset":0,"byteLength":56748,"byteStride":12,"target":34962},{"buffer":0,"byteOffset":56748,"byteLength":36488,"byteStride":8,"target":34962},{"buffer":0,"byteOffset":93236,"byteLength":672,"byteStride":4,"target":34962},{"buffer":0,"byteOffset":93908,"byteLength":73428,"target":34963}],"buffers":[{"byteLength":167336,"uri":"garden_1_10000f_8192t.bin"}]}