{"asset":{"generator":"3D Builder","version":"2.0"},"scene":0,"scenes":[{"nodes":[0]}],"nodes":[{"mesh":0,"matrix":[-0.5492512583732605,-0.80317723751068115,0.230697900056839,0,0.771796703338623,-0.59341287612915039,-0.22845959663391113,0,0.32039326429367065,0.05257110670208931,0.945823609828949,0,-4.2966141700744629,2.9187960624694824,-2.1581425666809082,1]}],"meshes":[{"primitives":[{"attributes":{"POSITION":0,"TEXCOORD_0":2},"mode":4,"indices":4,"material":0},{"attributes":{"POSITION":1,"COLOR_0":3},"mode":4,"indices":5}]}],"materials":[{"pbrMetallicRoughness":{"baseColorFactor":[1,1,1,1],"metallicFactor":0,"roughnessFactor":1,"baseColorTexture":{"index":0,"texCoord":0}},"alphaMode":"OPAQUE"}],"textures":[{"source":0,"sampler":0}],"images":[{"uri":"texture_1.jpeg"}],"samplers":[{"magFilter":9729,"wrapS":10497,"wrapT":10497}],"accessors":[{"bufferView":0,"byteOffset":0,"count":6358,"componentType":5126,"type":"VEC3","min":[-4.4781098365783691,0.46138700842857361,-3.4819254875183105],"max":[2.6908094882965088,7.2565383911132812,7.0748987197875977]},{"bufferView":0,"byteOffset":76296,"count":108,"componentType":5126,"type":"VEC3","min":[-4.09622859954834,2.2449960708618164,2.210606575012207],"max":[0.022200604900717735,6.5853571891784668,7.0743589401245117]},{"bufferView":1,"byteOffset":0,"count":6358,"componentType":5126,"type":"VEC2"},{"bufferView":2,"byteOffset":0,"count":108,"componentType":5121,"type":"VEC4","normalized":true},{"bufferView":3,"byteOffset":0,"count":28038,"componentType":5125,"type":"SCALAR"},{"bufferView":3,"byteOffset":112152,"count":315,"componentType":5125,"type":"SCALAR"}],"bufferViews":[{"buffer":0,"byteOffset":0,"byteLength":77592,"byteStride":12,"target":34962},{"buffer":0,"byteOffset":77592,"byteLength":50864,"byteStride":8,"target":34962},{"buffer":0,"byteOffset":128456,"byteLength":432,"byteStride":4,"target":34962},{"buffer":0,"byteOffset":128888,"byteLength":113412,"target":34963}],"buffers":[{"byteLength":242300,"uri":"garden_1_2_10000f_8192t_lowdp.bin"}]}